HIERARCHY
ROOT Hips
{
	OFFSET	0.00	0.00	0.00
	CHANNELS 6 Xposition Yposition Zposition Zrotation Xrotation Yrotation
	JOINT Chest
	{
		OFFSET	0.00	6.28	0.00
		CHANNELS 3 Zrotation Xrotation Yrotation
		JOINT Neck
		{
			OFFSET	0.00	14.30	0.00
			CHANNELS 3 Zrotation Xrotation Yrotation
			JOINT Head
			{
				OFFSET	0.00	2.64	0.00
				CHANNELS 3 Zrotation Xrotation Yrotation
				End Site
				{
					OFFSET	0.00	4.50	0.00
				}
			}
		}
		JOINT LeftCollar
		{
			OFFSET	1.12	11.36	1.87
			CHANNELS 3 Zrotation Xrotation Yrotation
			JOINT LeftUpArm
			{
				OFFSET	4.57	2.02	-1.82
				CHANNELS 3 Zrotation Xrotation Yrotation
				JOINT LeftLowArm
				{
					OFFSET	0.22	-10.35	-0.06
					CHANNELS 3 Zrotation Xrotation Yrotation
					JOINT LeftHand
					{
						OFFSET	0.09	-10.35	2.18
						CHANNELS 3 Zrotation Xrotation Yrotation
						End Site
						{
							OFFSET	0.13	-6.69	1.71
						}
					}
				}
			}
		}
		JOINT RightCollar
		{
			OFFSET	-1.12	11.36	1.87
			CHANNELS 3 Zrotation Xrotation Yrotation
			JOINT RightUpArm
			{
				OFFSET	-4.70	2.03	-1.82
				CHANNELS 3 Zrotation Xrotation Yrotation
				JOINT RightLowArm
				{
					OFFSET	-0.26	-10.43	-0.06
					CHANNELS 3 Zrotation Xrotation Yrotation
					JOINT RightHand
					{
						OFFSET	0.00	-10.26	2.18
						CHANNELS 3 Zrotation Xrotation Yrotation
						End Site
						{
							OFFSET	-0.14	-6.67	1.71
						}
					}
				}
			}
		}
	}
	JOINT LeftUpLeg
	{
		OFFSET	3.91	0.00	0.00
		CHANNELS 3 Zrotation Xrotation Yrotation
		JOINT LeftLowLeg
		{
			OFFSET	-0.44	-17.57	1.70
			CHANNELS 3 Zrotation Xrotation Yrotation
			JOINT LeftFoot
			{
				OFFSET	-0.04	-17.20	-1.48
				CHANNELS 3 Zrotation Xrotation Yrotation
				End Site
				{
					OFFSET	0.00	-3.93	5.23
				}
			}
		}
	}
	JOINT RightUpLeg
	{
		OFFSET	-3.91	0.00	0.00
		CHANNELS 3 Zrotation Xrotation Yrotation
		JOINT RightLowLeg
		{
			OFFSET	0.44	-17.62	1.70
			CHANNELS 3 Zrotation Xrotation Yrotation
			JOINT RightFoot
			{
				OFFSET	0.00	-17.14	-1.48
				CHANNELS 3 Zrotation Xrotation Yrotation
				End Site
				{
					OFFSET	0.00	-4.04	5.23
				}
			}
		}
	}
}
MOTION
Frames: 30
Frame Time: 0.04166667
-17.08	5.16	1.50	2.24	-0.24	83.36	3.95	-6.91	-0.61	-0.68	8.89	-3.92	-6.81	18.22	0.23	-10.83	3.88	1.19	33.71	-7.90	-69.99	-0.83	-15.01	2.25	-1.42	2.47	-0.30	9.30	8.30	1.70	-33.75	-8.59	48.65	-1.89	-19.72	4.36	-7.91	2.51	-1.69	-2.20	2.80	22.30	-2.40	5.52	-5.58	-0.24	-5.58	-0.16	-12.48	-10.42	-18.16	-2.09	53.75	-20.79	-12.19	20.84	10.65
-16.74	5.17	1.28	1.24	-0.11	82.75	4.43	-7.64	-1.18	-0.91	8.94	-3.25	-7.22	18.66	0.31	-11.06	3.70	1.22	34.05	-8.46	-71.28	-0.55	-16.51	2.02	-1.33	2.47	-0.28	9.25	8.63	1.63	-34.39	-9.08	48.58	-2.01	-19.98	4.52	-7.93	2.51	-1.70	-3.07	3.43	22.69	-2.30	4.02	-5.29	-0.10	-5.75	-0.16	-12.95	-13.25	-19.48	-1.43	54.27	-16.12	-13.22	15.31	9.96
-15.99	5.20	1.08	0.69	-0.28	81.75	5.38	-8.19	-1.56	-1.30	9.29	-2.32	-7.69	18.97	0.37	-10.76	2.61	0.87	33.48	-7.51	-73.50	0.13	-18.13	1.41	-2.23	2.47	-0.47	8.47	8.01	2.26	-34.42	-8.04	48.24	-2.04	-20.23	4.57	-8.12	2.52	-1.74	-3.80	4.90	23.63	-2.22	1.98	-5.22	-0.10	-5.77	-0.16	-12.96	-15.30	-19.96	-0.72	53.24	-12.37	-11.71	11.59	8.65
-15.24	5.21	0.90	0.29	-0.45	80.71	6.26	-8.56	-1.76	-1.52	9.61	-1.51	-8.14	19.13	0.42	-10.54	1.90	0.52	32.97	-6.83	-74.74	0.38	-19.57	1.13	-2.29	2.47	-0.49	7.92	7.47	2.67	-34.58	-7.02	47.45	-2.06	-20.59	4.62	-8.30	2.53	-1.77	-4.64	6.61	24.67	-2.13	-0.36	-5.22	-0.09	-5.51	-0.16	-12.72	-16.37	-21.51	-0.07	50.23	-9.67	-12.42	7.92	8.10
-14.51	5.24	0.74	0.16	-0.48	79.79	6.73	-8.29	-2.02	-1.52	9.52	-0.82	-8.49	19.13	0.43	-10.48	1.84	0.51	32.68	-7.18	-75.15	0.25	-20.88	1.33	-1.99	2.47	-0.42	7.84	7.48	2.55	-35.01	-6.98	46.36	-2.08	-20.81	4.62	-8.18	2.52	-1.75	-6.01	9.15	25.37	-1.96	-4.30	-5.00	-0.37	-4.12	-0.15	-12.30	-16.56	-23.66	0.40	45.63	-8.08	-11.72	4.23	7.17
-13.94	5.25	0.60	-0.05	-0.74	78.75	7.60	-8.18	-2.19	-1.68	9.56	-0.14	-8.76	19.04	0.44	-10.34	1.32	0.26	29.33	-4.90	-69.64	4.60	-16.22	-3.22	-8.57	2.60	-1.82	7.42	7.18	2.70	-35.13	-6.41	45.23	-2.11	-20.95	4.70	-8.35	2.53	-1.79	-7.45	12.01	26.33	-1.74	-9.19	-4.72	-0.48	-2.28	-0.14	-10.88	-16.23	-26.47	0.72	38.95	-7.39	-12.06	2.08	6.78
-13.18	5.28	0.51	-0.03	-0.90	77.58	7.93	-7.75	-2.10	-1.46	9.49	0.31	-9.01	18.93	0.43	-10.22	1.40	0.00	25.74	-2.99	-64.17	10.31	-11.40	-7.73	-15.08	2.88	-3.17	7.49	6.95	2.60	-35.22	-6.11	42.94	-1.44	-20.54	3.97	-10.23	2.59	-2.18	-7.63	12.97	26.38	-1.72	-9.20	-4.40	-1.31	-2.47	-0.09	-9.14	-15.46	-28.19	1.06	31.20	-5.40	-10.75	2.33	6.63
-12.40	5.30	0.49	0.16	-0.96	76.38	7.75	-7.41	-2.08	-1.06	9.69	0.76	-9.09	18.71	0.40	-9.66	1.07	-0.40	30.71	-5.99	-74.55	0.41	-22.77	1.17	-2.24	2.47	-0.48	7.40	5.88	3.06	-34.72	-4.61	41.77	-1.09	-20.30	3.54	-10.89	2.62	-2.32	-8.12	14.03	27.92	-1.72	-9.20	-4.45	-2.07	-2.66	-0.06	-6.74	-13.64	-29.46	1.47	21.57	-1.85	-9.26	3.87	6.65
-12.18	5.30	0.52	0.13	-1.04	75.59	7.63	-7.21	-2.37	-0.88	9.78	1.19	-9.14	18.39	0.34	-9.29	0.76	-0.70	29.92	-5.48	-73.86	0.37	-22.59	1.20	-2.06	2.47	-0.44	7.29	5.23	3.34	-34.30	-3.52	42.08	-1.47	-20.39	4.03	-10.36	2.60	-2.21	-8.36	14.88	28.93	-1.71	-9.20	-4.31	-2.87	-2.64	-0.01	-3.60	-11.04	-30.60	1.84	9.80	2.35	-6.37	7.53	6.53
-11.43	5.29	0.58	-0.08	-0.90	75.46	6.99	-7.23	-2.85	-0.46	9.78	1.13	-9.24	18.04	0.29	-8.93	0.97	-1.14	29.70	-5.75	-73.77	0.29	-22.80	1.32	-1.85	2.47	-0.39	7.62	4.95	3.26	-34.07	-2.78	41.53	-1.35	-20.44	3.84	-10.41	2.60	-2.22	-8.41	15.56	28.63	-1.68	-9.20	-4.02	-3.86	-2.18	0.07	1.36	-5.61	-30.16	1.87	-9.18	4.87	-1.84	16.11	5.70
-10.65	5.24	0.70	-0.01	-0.74	75.61	5.95	-7.03	-3.23	0.23	9.82	0.66	-9.49	17.69	0.24	-8.43	1.49	-1.72	29.91	-6.56	-74.18	0.10	-23.34	1.65	-1.52	2.47	-0.32	8.18	4.41	3.10	-33.89	-1.51	41.92	-1.50	-21.05	4.07	-10.72	2.61	-2.29	-8.29	16.66	26.81	-1.56	-9.20	-2.67	-5.10	-1.75	0.19	1.55	-7.60	-31.17	2.04	-9.17	6.74	1.83	15.15	4.33
-9.65	5.16	0.85	0.41	-0.52	75.97	4.48	-6.46	-3.54	1.23	9.77	-0.07	-9.82	17.46	0.20	-7.79	2.34	-2.16	30.13	-7.83	-74.16	0.35	-23.27	1.26	-1.98	2.47	-0.42	9.05	3.73	2.78	-33.82	-0.19	41.52	-1.04	-21.69	3.17	-10.58	2.61	-2.26	-8.41	18.11	26.25	-1.54	-9.20	-2.40	-5.80	-1.44	0.27	2.06	-8.57	-33.95	2.28	-9.14	9.44	5.21	11.34	3.41
-8.79	5.06	1.04	0.73	-0.30	76.53	3.12	-6.41	-4.09	2.05	10.07	-0.58	-10.08	17.58	0.23	-6.66	2.20	-2.84	29.92	-7.99	-74.91	0.32	-23.51	1.47	-2.68	2.48	-0.57	9.40	2.42	2.94	-33.46	2.11	41.48	-0.42	-22.60	1.77	-10.39	2.60	-2.22	-8.51	20.14	24.84	-1.45	-10.37	-1.80	-7.23	-0.48	0.50	2.79	-8.83	-36.37	2.45	-9.12	11.29	8.00	5.25	3.39
-7.84	4.93	1.29	0.89	-0.40	77.02	2.14	-7.39	-4.45	2.86	11.24	-1.06	-10.22	18.17	0.35	-4.80	0.34	-4.52	28.82	-5.54	-76.07	0.14	-24.04	1.74	-2.17	2.47	-0.46	9.02	-0.41	3.91	-32.33	6.72	41.75	0.07	-23.44	0.40	-9.84	2.58	-2.10	-6.52	18.87	23.39	-1.61	-3.90	-1.68	-8.39	-3.53	0.16	3.71	-8.61	-37.20	2.51	-9.11	11.99	10.85	1.36	3.54
-7.41	4.85	1.52	1.50	-0.49	77.71	1.42	-7.37	-4.84	3.41	11.63	-1.55	-10.35	19.00	0.51	-4.21	0.08	-5.10	28.69	-5.55	-76.80	0.09	-24.12	1.82	-1.97	2.47	-0.42	9.26	-1.23	3.89	-32.01	8.36	40.58	0.11	-23.68	0.12	-9.14	2.55	-1.95	-6.02	20.89	21.66	-1.53	-3.95	-0.98	-10.00	-3.04	0.31	4.03	-7.43	-35.11	2.40	-9.14	10.70	12.87	0.38	3.49
-7.20	4.81	1.64	1.79	-0.52	78.03	1.05	-7.37	-5.02	3.68	11.82	-1.79	-10.41	19.39	0.58	-3.91	-0.06	-5.39	28.61	-5.51	-77.15	0.06	-24.16	1.85	-1.86	2.47	-0.40	9.37	-1.66	3.89	-31.85	9.18	40.05	0.13	-23.81	-0.02	-8.80	2.54	-1.88	-5.86	22.06	20.85	-1.48	-4.44	-0.66	-10.78	-2.57	0.44	4.19	-6.88	-34.16	2.35	-9.15	10.15	13.82	-0.07	3.48
-4.75	4.68	2.02	1.76	-1.20	79.23	2.39	-9.30	-5.80	2.59	12.95	-1.73	-10.34	19.81	0.66	-3.50	-3.09	-6.61	26.72	-1.65	-77.84	0.20	-24.04	1.69	-2.48	2.47	-0.53	7.56	-3.34	5.20	-30.91	12.96	41.94	-1.96	-24.85	3.54	-6.19	2.47	-1.33	-2.89	21.01	16.14	-1.30	2.40	1.37	-12.97	-3.70	0.31	5.30	-5.79	-29.91	2.72	-9.06	14.47	1.35	6.11	4.71
-3.96	4.67	2.35	2.51	-1.81	79.77	2.82	-9.60	-5.84	2.39	13.43	-1.95	-10.25	19.74	0.64	-3.22	-4.23	-7.18	26.11	0.13	-77.70	0.17	-23.98	1.65	-2.00	2.47	-0.43	6.90	-4.37	5.81	-30.26	14.71	41.15	-1.39	-24.73	2.37	-6.43	2.47	-1.38	-1.36	21.78	13.32	-1.10	5.09	2.66	-14.55	-2.83	0.59	6.82	-4.00	-30.70	2.83	-9.02	15.82	-5.28	7.74	6.28
-3.16	4.72	2.70	3.68	-2.19	80.43	2.80	-8.91	-6.04	2.28	13.20	-2.03	-10.05	19.53	0.59	-3.62	-3.53	-6.75	26.85	-0.42	-77.45	0.13	-24.33	1.69	-1.69	2.47	-0.36	7.13	-3.62	5.64	-30.63	13.70	41.74	-1.34	-24.77	2.18	-5.58	2.46	-1.19	-0.01	22.69	9.08	-0.85	7.59	3.97	-16.24	-0.85	1.26	7.50	-1.83	-32.04	2.83	-9.02	15.84	-8.02	9.90	7.25
-1.93	4.76	3.10	4.38	-2.87	80.71	3.03	-9.62	-5.77	2.26	13.97	-2.24	-9.83	19.38	0.55	-3.40	-4.41	-7.37	26.84	1.94	-77.36	0.08	-24.81	1.87	-1.88	2.47	-0.40	6.90	-4.52	6.28	-30.33	14.94	41.56	-0.24	-24.08	0.47	-7.88	2.51	-1.69	1.66	22.86	6.48	-0.74	10.65	4.32	-18.24	1.40	2.18	8.62	0.47	-32.56	2.87	-9.00	16.36	-10.30	9.19	7.78
-1.11	4.85	3.50	5.30	-3.37	81.15	2.94	-9.54	-5.57	2.38	14.18	-2.48	-9.69	19.27	0.52	-3.41	-4.41	-7.38	27.16	2.90	-76.84	0.09	-24.73	1.90	-2.07	2.47	-0.44	7.05	-4.67	6.32	-30.54	14.58	43.21	0.07	-24.09	-0.14	-8.03	2.52	-1.72	3.15	22.90	3.82	-0.72	13.62	4.27	-20.19	4.38	3.54	9.59	3.04	-33.65	2.92	-8.99	17.04	-11.98	7.26	7.85
-0.15	4.88	3.89	5.68	-4.09	81.69	3.40	-10.03	-5.49	2.16	14.50	-2.66	-9.58	19.25	0.51	-3.38	-4.74	-7.40	27.24	4.23	-76.70	-0.31	-24.78	2.66	-1.66	2.47	-0.35	6.82	-4.85	6.59	-30.42	14.23	43.78	0.00	-23.84	0.16	-7.94	2.51	-1.70	5.03	21.15	1.81	-0.84	18.74	3.54	-21.88	6.91	4.87	10.75	5.08	-34.11	2.90	-9.00	16.75	-12.36	5.52	7.57
0.90	4.89	4.26	5.64	-4.48	82.41	3.72	-10.83	-5.53	1.75	14.77	-2.87	-9.44	19.28	0.51	-3.53	-5.24	-7.41	27.50	5.59	-77.03	-0.54	-25.10	3.16	-1.46	2.47	-0.31	6.36	-5.08	6.91	-30.22	13.78	44.77	-0.52	-23.89	1.14	-7.44	2.50	-1.59	6.71	17.90	2.18	-1.15	25.23	2.12	-20.99	9.55	5.62	11.64	6.48	-34.83	2.89	-9.00	16.67	-12.42	4.12	7.28
1.84	4.94	4.61	6.35	-4.35	83.33	2.90	-9.70	-5.28	2.07	13.92	-3.50	-9.30	19.24	0.50	-4.18	-3.40	-6.63	28.98	3.62	-76.12	-0.14	-24.83	2.37	-2.02	2.47	-0.43	7.29	-3.60	5.83	-31.10	10.40	45.20	-0.83	-24.04	1.87	-7.91	2.51	-1.69	7.97	14.83	2.81	-1.49	31.55	0.79	-19.51	13.46	6.48	12.04	8.41	-35.69	2.85	-9.01	16.27	-12.64	2.52	6.96
2.58	4.91	4.96	6.48	-4.83	83.74	3.37	-9.62	-4.67	1.79	13.84	-3.87	-9.26	18.97	0.45	-4.57	-3.51	-6.57	29.43	4.38	-75.23	0.18	-24.74	1.66	-1.79	2.47	-0.38	7.09	-3.51	5.90	-31.26	9.30	46.14	-1.16	-24.42	2.70	-9.14	2.55	-1.95	10.35	11.00	5.67	-1.80	38.17	-0.84	-17.57	18.07	7.11	13.01	9.88	-35.80	2.82	-9.02	15.84	-12.82	1.19	6.69
3.41	4.87	5.25	6.14	-5.26	84.28	4.11	-10.03	-4.25	1.25	13.94	-4.16	-9.18	18.77	0.41	-4.83	-4.22	-6.61	29.40	5.79	-74.33	0.15	-24.92	1.63	-1.10	2.46	-0.23	6.50	-3.80	6.40	-31.21	8.89	48.40	-2.06	-25.05	4.13	-7.04	2.49	-1.51	12.46	6.63	6.60	-1.80	43.56	-1.52	-19.83	23.90	9.96	13.93	10.76	-36.06	2.78	-9.03	15.45	-12.81	-0.06	6.40
4.14	4.87	5.52	5.86	-5.33	85.02	4.10	-9.90	-3.79	1.24	13.66	-4.64	-9.07	18.67	0.39	-4.93	-4.09	-6.39	29.42	6.06	-71.65	-0.27	-24.58	2.24	-20.74	3.25	-4.32	6.56	-3.72	6.37	-31.43	7.72	49.23	-2.10	-25.29	4.19	-6.81	2.48	-1.46	13.72	2.24	7.03	-1.59	48.31	-0.81	-21.96	27.39	12.29	14.52	11.49	-36.68	2.76	-9.03	15.25	-12.81	-1.28	6.13
4.81	4.87	5.75	5.32	-5.33	85.79	4.14	-9.94	-3.31	1.15	13.42	-5.00	-8.90	18.51	0.35	-5.15	-3.99	-6.29	29.40	6.61	-69.07	0.26	-24.57	1.07	-19.13	3.13	-3.99	6.50	-3.62	6.37	-31.60	6.72	50.05	-2.00	-25.52	3.94	-6.81	2.48	-1.46	15.09	-2.70	8.37	-1.55	53.34	-1.72	-20.77	26.34	11.24	15.07	11.80	-37.62	2.77	-9.03	15.32	-12.95	-2.06	5.96
5.49	4.82	6.00	4.30	-5.92	85.64	5.20	-11.02	-1.98	0.73	13.97	-5.22	-8.45	18.28	0.30	-5.18	-5.21	-6.86	28.62	9.42	-65.46	0.64	-24.50	-0.02	-15.08	2.88	-3.17	5.81	-4.55	7.20	-31.11	7.80	50.68	-1.88	-25.63	3.65	-6.76	2.48	-1.45	17.45	-7.64	11.60	-1.64	57.87	-3.29	-16.26	22.99	7.80	16.04	11.85	-36.95	2.72	-9.04	14.80	-13.27	-2.98	5.77
5.72	4.82	6.21	3.70	-5.71	86.60	4.87	-11.05	-1.67	0.67	13.84	-5.56	-8.03	18.09	0.26	-5.43	-5.06	-6.70	28.59	10.03	-61.74	1.52	-24.72	-1.86	-14.81	2.87	-3.11	5.89	-4.31	7.19	-31.13	7.09	50.81	-1.93	-25.88	3.72	-6.75	2.48	-1.44	18.46	-12.32	12.31	-2.16	60.07	-6.55	-14.56	20.48	6.36	16.34	11.94	-37.07	2.63	-9.07	13.78	-13.22	-3.75	5.58
